<mxfile host="app.diagrams.net" modified="2023-01-08T13:56:21.856Z" agent="5.0 (Windows)" etag="1tOlpbtP6sRfyC4OKSs9" version="20.8.3" type="github">
  <diagram id="hfHx5xJ_6ahI2qig_VOx" name="Sivu-1">
    <mxGraphModel dx="1621" dy="422" grid="1" gridSize="10" guides="1" tooltips="1" connect="1" arrows="1" fold="1" page="1" pageScale="1" pageWidth="827" pageHeight="1169" math="1" shadow="0">
      <root>
        <mxCell id="0" />
        <mxCell id="1" parent="0" />
        <mxCell id="5z1xVIaoIuraostgJcd_-95" value="" style="group" parent="1" vertex="1" connectable="0">
          <mxGeometry x="-693" y="480" width="560" height="250" as="geometry" />
        </mxCell>
        <mxCell id="5z1xVIaoIuraostgJcd_-56" value="" style="group" parent="5z1xVIaoIuraostgJcd_-95" vertex="1" connectable="0">
          <mxGeometry x="180" width="220" height="220" as="geometry" />
        </mxCell>
        <mxCell id="5z1xVIaoIuraostgJcd_-4" value="" style="ellipse;whiteSpace=wrap;html=1;aspect=fixed;" parent="5z1xVIaoIuraostgJcd_-56" vertex="1">
          <mxGeometry width="220" height="220" as="geometry" />
        </mxCell>
        <mxCell id="5z1xVIaoIuraostgJcd_-33" value="" style="endArrow=none;html=1;rounded=0;fontSize=15;exitX=0;exitY=1;exitDx=0;exitDy=0;entryX=0.901;entryY=0.203;entryDx=0;entryDy=0;entryPerimeter=0;" parent="5z1xVIaoIuraostgJcd_-56" source="5z1xVIaoIuraostgJcd_-4" target="5z1xVIaoIuraostgJcd_-4" edge="1">
          <mxGeometry width="50" height="50" relative="1" as="geometry">
            <mxPoint x="32.218254069479144" y="183.05174593052078" as="sourcePoint" />
            <mxPoint x="187.78174593052086" y="27.48825406947907" as="targetPoint" />
          </mxGeometry>
        </mxCell>
        <mxCell id="5z1xVIaoIuraostgJcd_-75" value="&lt;font style=&quot;font-size: 18px;&quot;&gt;$$y(x) =\sum_{i = 0}^k x_i w_i$$&lt;/font&gt;" style="text;html=1;strokeColor=none;fillColor=none;align=center;verticalAlign=middle;whiteSpace=wrap;rounded=0;" parent="5z1xVIaoIuraostgJcd_-56" vertex="1">
          <mxGeometry x="60" y="50" width="60" height="30" as="geometry" />
        </mxCell>
        <mxCell id="5z1xVIaoIuraostgJcd_-84" value="$$ \varphi_a (y(x))$$" style="text;html=1;strokeColor=none;fillColor=none;align=center;verticalAlign=middle;whiteSpace=wrap;rounded=0;fontSize=18;" parent="5z1xVIaoIuraostgJcd_-56" vertex="1">
          <mxGeometry x="120" y="130" width="60" height="30" as="geometry" />
        </mxCell>
        <mxCell id="5z1xVIaoIuraostgJcd_-66" value="" style="endArrow=classic;html=1;rounded=0;entryX=0.003;entryY=0.545;entryDx=0;entryDy=0;fontSize=15;exitX=1;exitY=0.5;exitDx=0;exitDy=0;entryPerimeter=0;" parent="5z1xVIaoIuraostgJcd_-95" source="5z1xVIaoIuraostgJcd_-69" target="5z1xVIaoIuraostgJcd_-4" edge="1">
          <mxGeometry width="50" height="50" relative="1" as="geometry">
            <mxPoint x="200" y="234" as="sourcePoint" />
            <mxPoint x="279.9999999999998" y="174" as="targetPoint" />
          </mxGeometry>
        </mxCell>
        <mxCell id="5z1xVIaoIuraostgJcd_-85" value="" style="endArrow=classic;html=1;rounded=0;fontSize=18;exitX=1;exitY=0.5;exitDx=0;exitDy=0;" parent="5z1xVIaoIuraostgJcd_-95" source="5z1xVIaoIuraostgJcd_-4" edge="1">
          <mxGeometry width="50" height="50" relative="1" as="geometry">
            <mxPoint x="240" y="140" as="sourcePoint" />
            <mxPoint x="490" y="110" as="targetPoint" />
          </mxGeometry>
        </mxCell>
        <mxCell id="5z1xVIaoIuraostgJcd_-88" value="$$w_0$$" style="text;html=1;strokeColor=none;fillColor=none;align=center;verticalAlign=middle;whiteSpace=wrap;rounded=0;fontSize=18;rotation=30;" parent="5z1xVIaoIuraostgJcd_-95" vertex="1">
          <mxGeometry x="80" y="30" width="60" height="20" as="geometry" />
        </mxCell>
        <mxCell id="5z1xVIaoIuraostgJcd_-89" value="$$w_k$$" style="text;html=1;strokeColor=none;fillColor=none;align=center;verticalAlign=middle;whiteSpace=wrap;rounded=0;fontSize=18;rotation=-40;" parent="5z1xVIaoIuraostgJcd_-95" vertex="1">
          <mxGeometry x="80" y="140" width="60" height="30" as="geometry" />
        </mxCell>
        <mxCell id="5z1xVIaoIuraostgJcd_-91" value="" style="group" parent="5z1xVIaoIuraostgJcd_-95" vertex="1" connectable="0">
          <mxGeometry width="60" height="250" as="geometry" />
        </mxCell>
        <mxCell id="5z1xVIaoIuraostgJcd_-54" value="" style="group" parent="5z1xVIaoIuraostgJcd_-91" vertex="1" connectable="0">
          <mxGeometry width="60" height="60" as="geometry" />
        </mxCell>
        <mxCell id="5z1xVIaoIuraostgJcd_-19" value="" style="whiteSpace=wrap;html=1;aspect=fixed;fontSize=18;" parent="5z1xVIaoIuraostgJcd_-54" vertex="1">
          <mxGeometry width="60" height="60" as="geometry" />
        </mxCell>
        <mxCell id="5z1xVIaoIuraostgJcd_-21" value="&lt;div style=&quot;font-size: 16px;&quot;&gt;&lt;font style=&quot;font-size: 16px;&quot;&gt;$$x_0 = 1$$&lt;/font&gt;&lt;/div&gt;" style="text;html=1;strokeColor=none;fillColor=none;align=center;verticalAlign=middle;whiteSpace=wrap;rounded=0;fontSize=18;" parent="5z1xVIaoIuraostgJcd_-54" vertex="1">
          <mxGeometry y="15" width="60" height="30" as="geometry" />
        </mxCell>
        <mxCell id="5z1xVIaoIuraostgJcd_-55" value="" style="group" parent="5z1xVIaoIuraostgJcd_-91" vertex="1" connectable="0">
          <mxGeometry y="80" width="60" height="60" as="geometry" />
        </mxCell>
        <mxCell id="5z1xVIaoIuraostgJcd_-20" value="&lt;div&gt;$$x_1$$&lt;/div&gt;" style="whiteSpace=wrap;html=1;aspect=fixed;fontSize=18;" parent="5z1xVIaoIuraostgJcd_-55" vertex="1">
          <mxGeometry width="60" height="60" as="geometry" />
        </mxCell>
        <mxCell id="5z1xVIaoIuraostgJcd_-67" value="" style="group" parent="5z1xVIaoIuraostgJcd_-91" vertex="1" connectable="0">
          <mxGeometry y="190" width="60" height="60" as="geometry" />
        </mxCell>
        <mxCell id="5z1xVIaoIuraostgJcd_-68" value="" style="whiteSpace=wrap;html=1;aspect=fixed;fontSize=18;" parent="5z1xVIaoIuraostgJcd_-67" vertex="1">
          <mxGeometry width="60" height="60" as="geometry" />
        </mxCell>
        <mxCell id="5z1xVIaoIuraostgJcd_-69" value="&lt;div&gt;$$x_k$$&lt;/div&gt;" style="text;html=1;strokeColor=none;fillColor=none;align=center;verticalAlign=middle;whiteSpace=wrap;rounded=0;fontSize=18;" parent="5z1xVIaoIuraostgJcd_-67" vertex="1">
          <mxGeometry y="15" width="60" height="30" as="geometry" />
        </mxCell>
        <mxCell id="5z1xVIaoIuraostgJcd_-90" value="$$\vdots $$" style="text;html=1;strokeColor=none;fillColor=none;align=center;verticalAlign=middle;whiteSpace=wrap;rounded=0;fontSize=18;" parent="5z1xVIaoIuraostgJcd_-91" vertex="1">
          <mxGeometry y="150" width="60" height="30" as="geometry" />
        </mxCell>
        <mxCell id="5z1xVIaoIuraostgJcd_-5" value="" style="endArrow=classic;html=1;rounded=0;exitX=1;exitY=0.5;exitDx=0;exitDy=0;entryX=0.003;entryY=0.447;entryDx=0;entryDy=0;fontSize=15;entryPerimeter=0;" parent="5z1xVIaoIuraostgJcd_-95" source="5z1xVIaoIuraostgJcd_-21" target="5z1xVIaoIuraostgJcd_-4" edge="1">
          <mxGeometry width="50" height="50" relative="1" as="geometry">
            <mxPoint x="200" y="34" as="sourcePoint" />
            <mxPoint x="280" y="94" as="targetPoint" />
          </mxGeometry>
        </mxCell>
        <mxCell id="5z1xVIaoIuraostgJcd_-10" value="" style="endArrow=classic;html=1;rounded=0;entryX=0;entryY=0.5;entryDx=0;entryDy=0;fontSize=15;exitX=1;exitY=0.5;exitDx=0;exitDy=0;" parent="5z1xVIaoIuraostgJcd_-95" source="5z1xVIaoIuraostgJcd_-20" target="5z1xVIaoIuraostgJcd_-4" edge="1">
          <mxGeometry width="50" height="50" relative="1" as="geometry">
            <mxPoint x="190" y="224" as="sourcePoint" />
            <mxPoint x="269.9999999999998" y="164" as="targetPoint" />
          </mxGeometry>
        </mxCell>
        <mxCell id="5z1xVIaoIuraostgJcd_-92" value="&lt;div&gt;$$w_1$$&lt;/div&gt;" style="text;html=1;strokeColor=none;fillColor=none;align=center;verticalAlign=middle;whiteSpace=wrap;rounded=0;fontSize=18;rotation=0;" parent="5z1xVIaoIuraostgJcd_-95" vertex="1">
          <mxGeometry x="80" y="80" width="60" height="30" as="geometry" />
        </mxCell>
        <mxCell id="5z1xVIaoIuraostgJcd_-93" value="" style="swimlane;startSize=0;fontSize=18;" parent="5z1xVIaoIuraostgJcd_-95" vertex="1">
          <mxGeometry x="500" y="80" width="60" height="60" as="geometry" />
        </mxCell>
        <mxCell id="5z1xVIaoIuraostgJcd_-86" value="$$f(x)$$" style="text;html=1;strokeColor=none;fillColor=none;align=center;verticalAlign=middle;whiteSpace=wrap;rounded=0;fontSize=18;" parent="5z1xVIaoIuraostgJcd_-93" vertex="1">
          <mxGeometry y="15" width="60" height="30" as="geometry" />
        </mxCell>
      </root>
    </mxGraphModel>
  </diagram>
</mxfile>
